<?xml version="1.0" standalone="no"?>
<svg xmlns:xlink="http://www.w3.org/1999/xlink" id="wave" style="transform:rotate(180deg); transition: 0.3s" viewBox="0 0 1440 290" version="1.1" xmlns="http://www.w3.org/2000/svg"><defs><linearGradient id="sw-gradient-0" x1="0" x2="0" y1="1" y2="0"><stop stop-color="rgba(0, 102, 255, 1)" offset="0%"/><stop stop-color="rgba(0, 102, 255, 1)" offset="100%"/></linearGradient></defs><path style="transform:translate(0, 0px); opacity:1" fill="url(#sw-gradient-0)" d="M0,87L48,91.8C96,97,192,106,288,135.3C384,164,480,213,576,227.2C672,242,768,222,864,193.3C960,164,1056,126,1152,120.8C1248,116,1344,145,1440,174C1536,203,1632,232,1728,232C1824,232,1920,203,2016,183.7C2112,164,2208,155,2304,169.2C2400,184,2496,222,2592,212.7C2688,203,2784,145,2880,145C2976,145,3072,203,3168,212.7C3264,222,3360,184,3456,149.8C3552,116,3648,87,3744,96.7C3840,106,3936,155,4032,154.7C4128,155,4224,106,4320,77.3C4416,48,4512,39,4608,33.8C4704,29,4800,29,4896,33.8C4992,39,5088,48,5184,77.3C5280,106,5376,155,5472,164.3C5568,174,5664,145,5760,145C5856,145,5952,174,6048,159.5C6144,145,6240,87,6336,72.5C6432,58,6528,87,6624,96.7C6720,106,6816,97,6864,91.8L6912,87L6912,290L6864,290C6816,290,6720,290,6624,290C6528,290,6432,290,6336,290C6240,290,6144,290,6048,290C5952,290,5856,290,5760,290C5664,290,5568,290,5472,290C5376,290,5280,290,5184,290C5088,290,4992,290,4896,290C4800,290,4704,290,4608,290C4512,290,4416,290,4320,290C4224,290,4128,290,4032,290C3936,290,3840,290,3744,290C3648,290,3552,290,3456,290C3360,290,3264,290,3168,290C3072,290,2976,290,2880,290C2784,290,2688,290,2592,290C2496,290,2400,290,2304,290C2208,290,2112,290,2016,290C1920,290,1824,290,1728,290C1632,290,1536,290,1440,290C1344,290,1248,290,1152,290C1056,290,960,290,864,290C768,290,672,290,576,290C480,290,384,290,288,290C192,290,96,290,48,290L0,290Z"/></svg>