<svg id="visual" viewBox="0 0 900 400" width="900" height="400" xmlns="http://www.w3.org/2000/svg" xmlns:xlink="http://www.w3.org/1999/xlink" version="1.1"><path d="M0 268L30 275.2C60 282.3 120 296.7 180 304.3C240 312 300 313 360 309.3C420 305.7 480 297.3 540 282.7C600 268 660 247 720 239.5C780 232 840 238 870 241L900 244L900 0L870 0C840 0 780 0 720 0C660 0 600 0 540 0C480 0 420 0 360 0C300 0 240 0 180 0C120 0 60 0 30 0L0 0Z" fill="#0066FF" stroke-linecap="round" stroke-linejoin="miter"></path></svg>