<?xml version="1.0" standalone="no"?>
<svg xmlns:xlink="http://www.w3.org/1999/xlink" id="wave" style="transform:rotate(180deg); transition: 0.3s" viewBox="0 0 1440 290" version="1.1" xmlns="http://www.w3.org/2000/svg"><defs><linearGradient id="sw-gradient-0" x1="0" x2="0" y1="1" y2="0"><stop stop-color="rgba(0, 102, 255, 1)" offset="0%"/><stop stop-color="rgba(0, 102, 255, 1)" offset="100%"/></linearGradient></defs><path style="transform:translate(0, 0px); opacity:1" fill="url(#sw-gradient-0)" d="M0,87L48,106.3C96,126,192,164,288,174C384,184,480,164,576,130.5C672,97,768,48,864,29C960,10,1056,19,1152,33.8C1248,48,1344,68,1440,72.5C1536,77,1632,68,1728,53.2C1824,39,1920,19,2016,14.5C2112,10,2208,19,2304,53.2C2400,87,2496,145,2592,169.2C2688,193,2784,184,2880,169.2C2976,155,3072,135,3168,111.2C3264,87,3360,58,3456,53.2C3552,48,3648,68,3744,62.8C3840,58,3936,29,4032,53.2C4128,77,4224,155,4320,198.2C4416,242,4512,251,4608,232C4704,213,4800,164,4896,125.7C4992,87,5088,58,5184,38.7C5280,19,5376,10,5472,29C5568,48,5664,97,5760,135.3C5856,174,5952,203,6048,193.3C6144,184,6240,135,6336,135.3C6432,135,6528,184,6624,183.7C6720,184,6816,135,6864,111.2L6912,87L6912,290L6864,290C6816,290,6720,290,6624,290C6528,290,6432,290,6336,290C6240,290,6144,290,6048,290C5952,290,5856,290,5760,290C5664,290,5568,290,5472,290C5376,290,5280,290,5184,290C5088,290,4992,290,4896,290C4800,290,4704,290,4608,290C4512,290,4416,290,4320,290C4224,290,4128,290,4032,290C3936,290,3840,290,3744,290C3648,290,3552,290,3456,290C3360,290,3264,290,3168,290C3072,290,2976,290,2880,290C2784,290,2688,290,2592,290C2496,290,2400,290,2304,290C2208,290,2112,290,2016,290C1920,290,1824,290,1728,290C1632,290,1536,290,1440,290C1344,290,1248,290,1152,290C1056,290,960,290,864,290C768,290,672,290,576,290C480,290,384,290,288,290C192,290,96,290,48,290L0,290Z"/></svg>