<svg data-v-423bf9ae="" xmlns="http://www.w3.org/2000/svg" viewBox="0 0 138.997363681817 60" class="font"><!----><!----><!----><g data-v-423bf9ae="" id="f923d273-6631-4d53-b341-3a4f5043f6cb" fill="white" stroke="white" stroke-width="0.3" transform="matrix(5.277044907995591,0,0,5.277044907995591,-6.860157232323203,-25.69920857486582)"><path d="M2.66 16.24L2.66 16.24L2.66 16.24Q1.86 16.00 1.58 15.79L1.58 15.79L1.58 15.79Q1.30 15.57 1.30 15.19L1.30 15.19L1.30 15.19Q1.30 14.77 1.50 14.01L1.50 14.01L1.50 14.01Q1.69 13.24 2.01 12.31L2.01 12.31L2.01 12.31Q2.32 11.37 2.73 10.35L2.73 10.35L2.73 10.35Q3.14 9.32 3.56 8.39L3.56 8.39L3.56 8.39Q3.98 7.45 4.38 6.67L4.38 6.67L4.38 6.67Q4.77 5.89 5.08 5.46L5.08 5.46L4.98 4.87L4.98 4.87Q5.18 4.87 5.53 4.97L5.53 4.97L5.53 4.97Q5.88 5.07 6.24 5.21L6.24 5.21L6.24 5.21Q6.59 5.35 6.87 5.49L6.87 5.49L6.87 5.49Q7.14 5.64 7.17 5.74L7.17 5.74L7.17 5.74Q7.10 6.08 7.06 6.76L7.06 6.76L7.06 6.76Q7.01 7.43 7.01 8.20L7.01 8.20L7.01 8.20Q7.01 9.73 7.13 11.19L7.13 11.19L7.13 11.19Q7.25 12.66 7.69 14.17L7.69 14.17L7.69 14.17Q7.91 13.05 8.17 11.94L8.17 11.94L8.17 11.94Q8.43 10.82 8.71 9.81L8.71 9.81L8.71 9.81Q8.99 8.79 9.27 7.92L9.27 7.92L9.27 7.92Q9.55 7.06 9.81 6.40L9.81 6.40L9.81 6.40Q10.07 5.75 10.29 5.38L10.29 5.38L10.29 5.38Q10.51 5.01 10.70 4.98L10.70 4.98L10.70 4.98Q10.85 5.01 11.03 5.10L11.03 5.10L11.03 5.10Q11.21 5.19 11.38 5.32L11.38 5.32L11.38 5.32Q11.55 5.45 11.69 5.60L11.69 5.60L11.69 5.60Q11.83 5.75 11.91 5.91L11.91 5.91L11.91 5.91Q11.47 6.09 11.03 6.76L11.03 6.76L11.03 6.76Q10.58 7.43 10.19 8.39L10.19 8.39L10.19 8.39Q9.79 9.35 9.44 10.47L9.44 10.47L9.44 10.47Q9.10 11.59 8.84 12.68L8.84 12.68L8.84 12.68Q8.58 13.76 8.44 14.69L8.44 14.69L8.44 14.69Q8.29 15.61 8.27 16.17L8.27 16.17L8.27 16.17Q8.27 16.20 8.29 16.21L8.29 16.21L8.29 16.21Q8.25 16.23 8.20 16.23L8.20 16.23L8.20 16.23Q8.15 16.23 8.11 16.23L8.11 16.23L8.11 16.23Q7.46 16.23 6.96 16.07L6.96 16.07L6.96 16.07Q6.47 15.90 6.31 15.61L6.31 15.61L6.31 15.61Q6.02 14.43 5.82 13.34L5.82 13.34L5.82 13.34Q5.63 12.25 5.50 11.16L5.50 11.16L5.50 11.16Q5.36 10.07 5.29 8.95L5.29 8.95L5.29 8.95Q5.21 7.84 5.17 6.62L5.17 6.62L5.17 6.62Q4.90 7.04 4.61 7.72L4.61 7.72L4.61 7.72Q4.31 8.40 4.03 9.21L4.03 9.21L4.03 9.21Q3.75 10.02 3.49 10.92L3.49 10.92L3.49 10.92Q3.23 11.82 3.04 12.67L3.04 12.67L3.04 12.67Q2.84 13.52 2.73 14.29L2.73 14.29L2.73 14.29Q2.62 15.05 2.62 15.61L2.62 15.61L2.62 15.61Q2.62 15.90 2.63 16.03L2.63 16.03L2.63 16.03Q2.63 16.16 2.66 16.24ZM15.55 9.38L15.55 9.38L15.55 9.38Q15.50 10.25 15.25 10.87L15.25 10.87L15.25 10.87Q14.99 11.49 14.52 11.96L14.52 11.96L14.52 11.96Q14.06 12.43 13.38 12.81L13.38 12.81L13.38 12.81Q12.71 13.19 11.82 13.54L11.82 13.54L11.82 13.54Q11.82 13.62 11.81 13.71L11.81 13.71L11.81 13.71Q11.80 13.80 11.80 13.90L11.80 13.90L11.80 13.90Q11.80 14.08 11.83 14.28L11.83 14.28L11.83 14.28Q11.86 14.48 11.93 14.64L11.93 14.64L11.93 14.64Q12.00 14.81 12.12 14.92L12.12 14.92L12.12 14.92Q12.25 15.02 12.45 15.02L12.45 15.02L12.45 15.02Q12.82 15.02 13.19 14.85L13.19 14.85L13.19 14.85Q13.55 14.69 13.88 14.44L13.88 14.44L13.88 14.44Q14.21 14.20 14.50 13.91L14.50 13.91L14.50 13.91Q14.78 13.62 15.01 13.38L15.01 13.38L15.01 13.38Q15.15 13.51 15.25 13.62L15.25 13.62L15.25 13.62Q14.62 14.46 13.87 15.02L13.87 15.02L13.87 15.02Q13.12 15.57 12.45 15.72L12.45 15.72L12.45 15.72Q11.48 15.61 10.94 15.02L10.94 15.02L10.94 15.02Q10.40 14.42 10.40 13.58L10.40 13.58L10.40 13.58Q10.40 13.01 10.56 12.41L10.56 12.41L10.56 12.41Q10.72 11.82 11.01 11.26L11.01 11.26L11.01 11.26Q11.30 10.71 11.68 10.22L11.68 10.22L11.68 10.22Q12.07 9.73 12.51 9.37L12.51 9.37L12.51 9.37Q12.95 9.00 13.42 8.79L13.42 8.79L13.42 8.79Q13.89 8.58 14.35 8.58L14.35 8.58L14.35 8.58Q14.99 8.67 15.55 9.38ZM14.59 9.84L14.59 9.84L14.59 9.84Q14.21 9.90 13.80 10.15L13.80 10.15L13.80 10.15Q13.40 10.40 13.04 10.82L13.04 10.82L13.04 10.82Q12.68 11.24 12.39 11.80L12.39 11.80L12.39 11.80Q12.10 12.36 11.93 13.01L11.93 13.01L11.93 13.01Q13.05 12.45 13.79 11.63L13.79 11.63L13.79 11.63Q14.53 10.81 14.59 9.84ZM21.03 9.52L21.03 9.52L21.03 9.52Q21.17 9.52 21.36 9.57L21.36 9.57L21.36 9.57Q21.55 9.62 21.70 9.70L21.70 9.70L21.70 9.70Q21.85 9.77 21.96 9.86L21.96 9.86L21.96 9.86Q22.06 9.94 22.06 10.01L22.06 10.01L22.06 10.01Q21.78 10.60 21.55 11.19L21.55 11.19L21.55 11.19Q21.31 11.79 21.14 12.33L21.14 12.33L21.14 12.33Q20.97 12.88 20.88 13.36L20.88 13.36L20.88 13.36Q20.79 13.83 20.79 14.18L20.79 14.18L20.79 14.18Q20.79 14.57 20.87 14.83L20.87 14.83L20.87 14.83Q20.96 15.09 21.15 15.20L21.15 15.20L21.15 15.20Q20.99 15.32 20.72 15.39L20.72 15.39L20.72 15.39Q20.45 15.46 20.24 15.46L20.24 15.46L20.24 15.46Q19.49 15.46 19.49 14.42L19.49 14.42L19.49 14.42Q19.49 13.62 20.02 12.24L20.02 12.24L20.02 12.24Q19.74 12.88 19.38 13.45L19.38 13.45L19.38 13.45Q19.01 14.01 18.63 14.45L18.63 14.45L18.63 14.45Q18.26 14.88 17.87 15.15L17.87 15.15L17.87 15.15Q17.49 15.43 17.16 15.48L17.16 15.48L17.16 15.48Q16.65 15.46 16.32 14.99L16.32 14.99L16.32 14.99Q16.00 14.52 16.00 13.79L16.00 13.79L16.00 13.79Q16.00 13.01 16.34 12.14L16.34 12.14L16.34 12.14Q16.67 11.27 17.20 10.53L17.20 10.53L17.20 10.53Q17.72 9.79 18.34 9.29L18.34 9.29L18.34 9.29Q18.96 8.79 19.53 8.76L19.53 8.76L19.53 8.76Q19.67 8.81 19.84 8.93L19.84 8.93L19.84 8.93Q20.02 9.06 20.18 9.23L20.18 9.23L20.18 9.23Q20.34 9.39 20.45 9.57L20.45 9.57L20.45 9.57Q20.57 9.74 20.58 9.87L20.58 9.87L20.58 9.87Q20.02 9.95 19.43 10.42L19.43 10.42L19.43 10.42Q18.83 10.88 18.35 11.53L18.35 11.53L18.35 11.53Q17.86 12.18 17.56 12.92L17.56 12.92L17.56 12.92Q17.25 13.66 17.25 14.31L17.25 14.31L17.25 14.31Q17.25 14.57 17.44 14.64L17.44 14.64L17.44 14.64Q17.85 14.56 18.38 13.95L18.38 13.95L18.38 13.95Q18.91 13.34 19.67 12.07L19.67 12.07L19.67 12.07Q19.81 11.82 19.98 11.51L19.98 11.51L19.98 11.51Q20.16 11.20 20.34 10.86L20.34 10.86L20.34 10.86Q20.52 10.53 20.70 10.18L20.70 10.18L20.70 10.18Q20.87 9.84 21.03 9.52ZM24.16 9.81L23.37 9.81L23.37 9.81Q23.30 9.73 23.24 9.46L23.24 9.46L23.24 9.46Q23.18 9.18 23.18 8.99L23.18 8.99L23.18 8.99Q23.55 9.02 23.88 9.04L23.88 9.04L23.88 9.04Q24.22 9.06 24.50 9.07L24.50 9.07L24.50 9.07Q24.71 8.65 24.96 8.24L24.96 8.24L24.96 8.24Q25.20 7.83 25.43 7.48L25.43 7.48L25.43 7.48Q25.66 7.14 25.87 6.90L25.87 6.90L25.87 6.90Q26.07 6.66 26.18 6.59L26.18 6.59L26.18 6.59Q26.32 6.59 26.54 6.64L26.54 6.64L26.54 6.64Q26.75 6.69 26.98 6.77L26.98 6.77L26.98 6.77Q27.20 6.85 27.38 6.93L27.38 6.93L27.38 6.93Q27.57 7.01 27.64 7.10L27.64 7.10L27.64 7.10Q27.22 7.63 26.92 8.09L26.92 8.09L26.92 8.09Q26.61 8.54 26.26 9.13L26.26 9.13L26.26 9.13Q26.54 9.13 26.83 9.11L26.83 9.11L26.83 9.11Q27.12 9.10 27.41 9.07L27.41 9.07L27.41 9.07Q27.48 9.14 27.52 9.25L27.52 9.25L27.52 9.25Q27.57 9.35 27.57 9.46L27.57 9.46L27.57 9.46Q26.88 9.72 25.90 9.74L25.90 9.74L25.90 9.74Q25.55 10.42 25.28 11.08L25.28 11.08L25.28 11.08Q25.00 11.75 24.82 12.36L24.82 12.36L24.82 12.36Q24.63 12.98 24.52 13.52L24.52 13.52L24.52 13.52Q24.42 14.07 24.42 14.50L24.42 14.50L24.42 14.50Q24.42 15.12 24.88 15.19L24.88 15.19L24.88 15.19Q25.30 15.13 25.68 14.98L25.68 14.98L25.68 14.98Q26.05 14.83 26.35 14.59L26.35 14.59L26.35 14.59Q26.43 14.71 26.45 14.80L26.45 14.80L26.45 14.80Q26.36 14.92 26.16 15.09L26.16 15.09L26.16 15.09Q25.96 15.26 25.72 15.42L25.72 15.42L25.72 15.42Q25.48 15.58 25.26 15.69L25.26 15.69L25.26 15.69Q25.03 15.81 24.92 15.82L24.92 15.82L24.92 15.82Q24.57 15.81 24.22 15.67L24.22 15.67L24.22 15.67Q23.87 15.53 23.58 15.32L23.58 15.32L23.58 15.32Q23.30 15.11 23.11 14.85L23.11 14.85L23.11 14.85Q22.93 14.59 22.93 14.34L22.93 14.34L22.93 14.34Q22.93 14 23.02 13.49L23.02 13.49L23.02 13.49Q23.11 12.98 23.28 12.38L23.28 12.38L23.28 12.38Q23.45 11.77 23.67 11.12L23.67 11.12L23.67 11.12Q23.90 10.46 24.16 9.81L24.16 9.81Z"></path></g><!----><!----></svg>